<svg width="779" height="159" viewBox="0 0 779 159" fill="none" xmlns="http://www.w3.org/2000/svg">
<path d="M103.2 109.4H46.6C40.3333 123.533 37.2 133.333 37.2 138.8C37.2 142.8 38.6667 145.333 41.6 146.4C44.6667 147.467 49.2 148 55.2 148V156H0.4V148C3.6 147.6 6.33333 147.067 8.6 146.4C11 145.733 13.0667 144.8 14.8 143.6C16.6667 142.4 18.2667 140.867 19.6 139C20.9333 137 22.2 134.6 23.4 131.8L76 -6.19888e-06H90.8L138.6 116.8C141.4 123.6 143.733 128.933 145.6 132.8C147.6 136.667 149.667 139.667 151.8 141.8C154.067 143.8 156.6 145.2 159.4 146C162.333 146.8 166.067 147.4 170.6 147.8V156H95V147.8C101.4 147.533 106 146.867 108.8 145.8C111.6 144.733 113 142.6 113 139.4C113 137.533 112.533 135.133 111.6 132.2C110.667 129.267 109.4 125.667 107.8 121.4L103.2 109.4ZM51.2 97.4H98.8L75.8 36.8H75L51.2 97.4ZM256.445 82.8C256.445 77.4667 256.312 73.2667 256.045 70.2C255.779 67 255.045 64.6 253.845 63C252.645 61.2667 250.845 60.1333 248.445 59.6C246.179 58.9333 243.045 58.4 239.045 58V50H284.245V110.6C284.245 118.733 284.312 125.133 284.445 129.8C284.712 134.333 285.112 137.733 285.645 140C286.045 141.733 286.512 143.133 287.045 144.2C287.579 145.133 288.445 145.933 289.645 146.6C290.845 147.133 292.445 147.533 294.445 147.8C296.579 147.933 299.312 148 302.645 148V155.8L262.845 158.2L260.645 140.4H259.845C256.379 146 251.512 150.333 245.245 153.4C238.979 156.467 231.979 158 224.245 158C209.979 158 199.112 152.933 191.645 142.8C185.912 135.067 183.045 124.067 183.045 109.8V82.8C183.045 77.3333 182.912 73.0667 182.645 70C182.379 66.8 181.645 64.4 180.445 62.8C179.379 61.2 177.712 60.1333 175.445 59.6C173.179 58.9333 170.045 58.4 166.045 58V50H210.845V106.6C210.845 120.067 212.512 129.867 215.845 136C219.179 142 224.512 145 231.845 145C239.712 145 245.779 141.4 250.045 134.2C254.312 127.267 256.445 117.067 256.445 103.6V82.8ZM326.242 156H320.042V119.6H328.442C330.709 129.2 333.976 136.2 338.242 140.6C342.509 145 348.042 147.2 354.842 147.2C359.776 147.2 363.576 146.2 366.242 144.2C369.042 142.067 370.442 139.2 370.442 135.6C370.442 131.867 368.776 128.267 365.442 124.8C362.109 121.2 356.709 117.4 349.242 113.4C339.109 107.933 331.842 102.533 327.442 97.2C323.042 91.7333 320.842 85.6 320.842 78.8C320.842 74.4 321.642 70.3333 323.242 66.6C324.976 62.7333 327.242 59.4 330.042 56.6C332.976 53.8 336.442 51.6667 340.442 50.2C344.442 48.6 348.776 47.8 353.442 47.8C357.576 47.8 361.642 48.4 365.642 49.6C369.776 50.8 373.376 52.4667 376.442 54.6L380.042 49.8H385.242V80H377.442C374.376 72.4 371.176 66.9333 367.842 63.6C364.642 60.2667 360.709 58.6 356.042 58.6C352.309 58.6 349.309 59.6 347.042 61.6C344.909 63.6 343.842 66.2667 343.842 69.6C343.842 73.3333 345.442 76.8667 348.642 80.2C351.976 83.5333 357.442 87.2 365.042 91.2C370.376 94.1333 374.976 97 378.842 99.8C382.709 102.6 385.842 105.467 388.242 108.4C390.642 111.2 392.376 114.2 393.442 117.4C394.642 120.467 395.242 123.8 395.242 127.4C395.242 132.067 394.376 136.267 392.642 140C390.909 143.733 388.442 146.933 385.242 149.6C382.042 152.267 378.176 154.333 373.642 155.8C369.242 157.267 364.309 158 358.842 158C353.109 158 347.776 157.267 342.842 155.8C337.909 154.2 333.842 151.933 330.642 149L326.242 156ZM423.406 156H417.206V119.6H425.606C427.873 129.2 431.14 136.2 435.406 140.6C439.673 145 445.206 147.2 452.006 147.2C456.94 147.2 460.74 146.2 463.406 144.2C466.206 142.067 467.606 139.2 467.606 135.6C467.606 131.867 465.94 128.267 462.606 124.8C459.273 121.2 453.873 117.4 446.406 113.4C436.273 107.933 429.006 102.533 424.606 97.2C420.206 91.7333 418.006 85.6 418.006 78.8C418.006 74.4 418.806 70.3333 420.406 66.6C422.14 62.7333 424.406 59.4 427.206 56.6C430.14 53.8 433.606 51.6667 437.606 50.2C441.606 48.6 445.94 47.8 450.606 47.8C454.74 47.8 458.806 48.4 462.806 49.6C466.94 50.8 470.54 52.4667 473.606 54.6L477.206 49.8H482.406V80H474.606C471.54 72.4 468.34 66.9333 465.006 63.6C461.806 60.2667 457.873 58.6 453.206 58.6C449.473 58.6 446.473 59.6 444.206 61.6C442.073 63.6 441.006 66.2667 441.006 69.6C441.006 73.3333 442.606 76.8667 445.806 80.2C449.14 83.5333 454.606 87.2 462.206 91.2C467.54 94.1333 472.14 97 476.006 99.8C479.873 102.6 483.006 105.467 485.406 108.4C487.806 111.2 489.54 114.2 490.606 117.4C491.806 120.467 492.406 123.8 492.406 127.4C492.406 132.067 491.54 136.267 489.806 140C488.073 143.733 485.606 146.933 482.406 149.6C479.206 152.267 475.34 154.333 470.806 155.8C466.406 157.267 461.473 158 456.006 158C450.273 158 444.94 157.267 440.006 155.8C435.073 154.2 431.006 151.933 427.806 149L423.406 156ZM611.57 137.4C599.437 151.133 584.304 158 566.17 158C557.904 158 550.37 156.733 543.57 154.2C536.904 151.533 531.17 147.867 526.37 143.2C521.57 138.4 517.837 132.733 515.17 126.2C512.504 119.667 511.17 112.4 511.17 104.4C511.17 96.1333 512.57 88.6 515.37 81.8C518.17 74.8667 522.104 68.9333 527.17 64C532.37 58.9333 538.437 55 545.37 52.2C552.437 49.4 560.17 48 568.57 48C582.704 48 593.704 51.8 601.57 59.4C609.437 67 613.37 77.6667 613.37 91.4C613.37 93.5333 613.037 94.8667 612.37 95.4C611.704 95.8 609.837 96 606.77 96H542.37C541.837 97.2 541.57 99.4 541.57 102.6C541.57 115.667 544.37 126 549.97 133.6C555.704 141.2 563.437 145 573.17 145C578.77 145 584.304 143.733 589.77 141.2C595.37 138.667 600.77 135.067 605.97 130.4L611.57 137.4ZM572.77 84.8C578.104 84.8 581.504 84.5333 582.97 84C584.57 83.3333 585.37 81.8667 585.37 79.6C585.37 73.7333 583.704 68.9333 580.37 65.2C577.037 61.4667 572.837 59.6 567.77 59.6C562.037 59.6 556.904 62 552.37 66.8C547.97 71.4667 545.104 77.4667 543.77 84.8H572.77ZM641.563 156H635.363V119.6H643.763C646.029 129.2 649.296 136.2 653.563 140.6C657.829 145 663.363 147.2 670.163 147.2C675.096 147.2 678.896 146.2 681.563 144.2C684.363 142.067 685.763 139.2 685.763 135.6C685.763 131.867 684.096 128.267 680.763 124.8C677.429 121.2 672.029 117.4 664.563 113.4C654.429 107.933 647.163 102.533 642.763 97.2C638.363 91.7333 636.163 85.6 636.163 78.8C636.163 74.4 636.963 70.3333 638.563 66.6C640.296 62.7333 642.563 59.4 645.363 56.6C648.296 53.8 651.763 51.6667 655.763 50.2C659.763 48.6 664.096 47.8 668.763 47.8C672.896 47.8 676.963 48.4 680.963 49.6C685.096 50.8 688.696 52.4667 691.763 54.6L695.363 49.8H700.563V80H692.763C689.696 72.4 686.496 66.9333 683.163 63.6C679.963 60.2667 676.029 58.6 671.363 58.6C667.629 58.6 664.629 59.6 662.363 61.6C660.229 63.6 659.163 66.2667 659.163 69.6C659.163 73.3333 660.763 76.8667 663.963 80.2C667.296 83.5333 672.763 87.2 680.363 91.2C685.696 94.1333 690.296 97 694.163 99.8C698.029 102.6 701.163 105.467 703.563 108.4C705.963 111.2 707.696 114.2 708.763 117.4C709.963 120.467 710.563 123.8 710.563 127.4C710.563 132.067 709.696 136.267 707.963 140C706.229 143.733 703.763 146.933 700.563 149.6C697.363 152.267 693.496 154.333 688.963 155.8C684.563 157.267 679.629 158 674.163 158C668.429 158 663.096 157.267 658.163 155.8C653.229 154.2 649.163 151.933 645.963 149L641.563 156ZM748.527 143.2C748.527 138.933 749.927 135.333 752.727 132.4C755.66 129.333 759.26 127.8 763.527 127.8C767.927 127.8 771.593 129.333 774.527 132.4C777.46 135.333 778.927 138.933 778.927 143.2C778.927 147.333 777.46 150.867 774.527 153.8C771.593 156.6 767.927 158 763.527 158C759.26 158 755.66 156.6 752.727 153.8C749.927 150.867 748.527 147.333 748.527 143.2Z" fill="#263C41"/>
</svg>
