<svg width="16" height="16" viewBox="0 0 16 16" fill="none" xmlns="http://www.w3.org/2000/svg">
<rect width="16" height="16" rx="3" fill="#CCC5B9"/>
<path d="M7.7102 9.67H4.8802C4.56686 10.3767 4.4102 10.8667 4.4102 11.14C4.4102 11.34 4.48353 11.4667 4.6302 11.52C4.78353 11.5733 5.0102 11.6 5.3102 11.6V12H2.5702V11.6C2.7302 11.58 2.86686 11.5533 2.9802 11.52C3.1002 11.4867 3.20353 11.44 3.2902 11.38C3.38353 11.32 3.46353 11.2433 3.5302 11.15C3.59686 11.05 3.6602 10.93 3.7202 10.79L6.3502 4.2H7.0902L9.4802 10.04C9.6202 10.38 9.73686 10.6467 9.8302 10.84C9.9302 11.0333 10.0335 11.1833 10.1402 11.29C10.2535 11.39 10.3802 11.46 10.5202 11.5C10.6669 11.54 10.8535 11.57 11.0802 11.59V12H7.3002V11.59C7.6202 11.5767 7.8502 11.5433 7.9902 11.49C8.1302 11.4367 8.2002 11.33 8.2002 11.17C8.2002 11.0767 8.17686 10.9567 8.1302 10.81C8.08353 10.6633 8.0202 10.4833 7.9402 10.27L7.7102 9.67ZM5.1102 9.07H7.4902L6.3402 6.04H6.3002L5.1102 9.07ZM12.3261 11.36C12.3261 11.1467 12.3961 10.9667 12.5361 10.82C12.6828 10.6667 12.8628 10.59 13.0761 10.59C13.2961 10.59 13.4795 10.6667 13.6261 10.82C13.7728 10.9667 13.8461 11.1467 13.8461 11.36C13.8461 11.5667 13.7728 11.7433 13.6261 11.89C13.4795 12.03 13.2961 12.1 13.0761 12.1C12.8628 12.1 12.6828 12.03 12.5361 11.89C12.3961 11.7433 12.3261 11.5667 12.3261 11.36Z" fill="#263C41"/>
</svg>
